<?xml version="1.0" encoding="UTF-8"?>
<svg xmlns="http://www.w3.org/2000/svg" xmlns:xlink="http://www.w3.org/1999/xlink" width="2001" height="2001" viewBox="0 0 2001 2001">

<path fill-rule="evenodd" fill="rgb(100%, 59.959412%, 59.959412%)" fill-opacity="1" d="M 1173.761719 880.070312 C 1173.671875 880.121094 1173.578125 880.160156 1173.5 880.210938 C 1157.769531 889.019531 1141.980469 897.710938 1126.328125 906.648438 C 1114.941406 913.160156 1103.441406 919.839844 1092.578125 927.199219 C 1081.519531 934.699219 1066.828125 945.5 1062.648438 958.890625 C 1058.46875 972.28125 1064.398438 989.519531 1069.238281 1001.980469 C 1073.980469 1014.210938 1079.640625 1026.246094 1085.300781 1038.078125 C 1093.089844 1054.332031 1101.128906 1070.472656 1109.058594 1086.660156 C 1109.101562 1086.746094 1109.140625 1086.835938 1109.191406 1086.921875 C 1124.039062 1115 1139.039062 1144.304688 1150.070312 1174.128906 C 1158.371094 1196.578125 1164.109375 1219.15625 1165.179688 1243.152344 C 1166.230469 1266.511719 1162.769531 1289.269531 1157.480469 1311.953125 C 1150.578125 1341.554688 1140.949219 1371.070312 1131.691406 1400.011719 C 1126.890625 1415.035156 1110.78125 1423.402344 1095.730469 1418.703125 L 721.777344 1301.972656 C 706.726562 1297.273438 698.242188 1281.230469 702.835938 1266.144531 C 711.683594 1237.070312 720.558594 1207.316406 731.71875 1179.050781 C 740.273438 1157.382812 750.378906 1136.699219 764.523438 1118.085938 C 779.058594 1098.960938 796.621094 1083.65625 816.222656 1069.914062 C 842.257812 1051.660156 871.265625 1036.09375 899.457031 1021.449219 C 899.542969 1021.40625 899.628906 1021.359375 899.714844 1021.3125 C 915.441406 1012.507812 931.238281 1003.808594 946.886719 994.871094 C 958.277344 988.359375 969.773438 981.679688 980.632812 974.320312 C 991.699219 966.820312 1006.390625 956.019531 1010.558594 942.628906 C 1014.738281 929.238281 1008.808594 912 1003.980469 899.539062 C 999.230469 887.308594 993.578125 875.28125 987.914062 863.449219 C 980.128906 847.191406 972.085938 831.050781 964.160156 814.859375 C 964.117188 814.78125 964.070312 814.691406 964.027344 814.601562 C 949.167969 786.519531 934.171875 757.21875 923.144531 727.390625 C 914.84375 704.941406 909.101562 682.371094 908.027344 658.371094 C 906.988281 635.011719 910.441406 612.25 915.730469 589.570312 C 922.632812 559.96875 932.261719 530.449219 941.523438 501.511719 C 946.328125 486.488281 962.429688 478.121094 977.484375 482.820312 L 1351.429688 599.550781 C 1366.488281 604.25 1374.96875 620.289062 1370.378906 635.378906 C 1361.53125 664.449219 1352.660156 694.210938 1341.488281 722.46875 C 1332.941406 744.140625 1322.828125 764.820312 1308.691406 783.441406 C 1294.160156 802.558594 1276.589844 817.871094 1256.988281 831.609375 C 1230.960938 849.859375 1201.949219 865.429688 1173.761719 880.070312 "/>
<path fill-rule="evenodd" fill="rgb(90.234375%, 48.631287%, 48.631287%)" fill-opacity="1" d="M 1169.238281 871.378906 C 1306.269531 800.210938 1318.101562 773.488281 1361 632.53125 C 1364.03125 622.578125 1358.441406 612 1348.519531 608.910156 L 974.566406 492.171875 C 964.640625 489.070312 954.023438 494.589844 950.855469 504.5 C 905.949219 644.839844 900.480469 673.539062 972.6875 810.019531 C 972.785156 810.210938 972.867188 810.371094 972.960938 810.558594 C 1045.5 958.730469 1048.460938 949.269531 904.5 1029.863281 C 904.316406 1029.964844 904.160156 1030.050781 903.972656 1030.144531 C 766.945312 1101.3125 755.117188 1128.03125 712.210938 1268.996094 C 709.179688 1278.941406 714.773438 1289.519531 724.699219 1292.617188 L 1098.648438 1409.351562 C 1108.570312 1412.449219 1119.191406 1406.929688 1122.359375 1397.027344 C 1167.261719 1256.6875 1172.738281 1227.980469 1100.53125 1091.503906 C 1100.429688 1091.316406 1100.351562 1091.15625 1100.261719 1090.96875 C 1027.710938 942.789062 1024.761719 952.261719 1168.710938 871.660156 C 1168.898438 871.558594 1169.050781 871.46875 1169.238281 871.378906 "/>
<path fill-rule="evenodd" fill="rgb(100%, 89.84375%, 89.84375%)" fill-opacity="1" d="M 1162.949219 859.269531 C 1294.640625 790.878906 1305.601562 767.699219 1347.960938 628.558594 C 1348.800781 625.78125 1347.230469 622.789062 1344.449219 621.921875 L 970.5 505.191406 C 967.726562 504.328125 964.730469 505.878906 963.84375 508.648438 C 919.519531 647.179688 915.347656 672.480469 984.742188 803.640625 C 984.902344 803.949219 985.058594 804.25 985.207031 804.558594 C 993.164062 820.808594 1001.238281 837.011719 1009.050781 853.328125 C 1014.980469 865.699219 1020.859375 878.269531 1025.828125 891.070312 C 1032.941406 909.398438 1039.019531 930.121094 1032.941406 949.621094 C 1026.851562 969.109375 1010.058594 982.691406 993.78125 993.71875 C 982.417969 1001.421875 970.429688 1008.414062 958.515625 1015.21875 C 942.804688 1024.191406 926.949219 1032.925781 911.164062 1041.761719 C 910.863281 1041.929688 910.5625 1042.089844 910.257812 1042.25 C 778.574219 1110.640625 767.609375 1133.828125 725.257812 1272.96875 C 724.410156 1275.746094 725.988281 1278.734375 728.761719 1279.601562 L 1102.710938 1396.332031 C 1105.488281 1397.199219 1108.480469 1395.640625 1109.371094 1392.871094 C 1153.691406 1254.347656 1157.871094 1229.039062 1088.46875 1097.878906 C 1088.308594 1097.578125 1088.160156 1097.273438 1088.011719 1096.964844 C 1080.050781 1080.71875 1071.980469 1064.515625 1064.160156 1048.199219 C 1058.238281 1035.824219 1052.351562 1023.253906 1047.390625 1010.457031 C 1040.28125 992.128906 1034.191406 971.398438 1040.28125 951.910156 C 1046.359375 932.421875 1063.160156 918.828125 1079.429688 907.800781 C 1090.789062 900.101562 1102.789062 893.109375 1114.699219 886.308594 C 1130.410156 877.328125 1146.261719 868.601562 1162.050781 859.761719 C 1162.351562 859.589844 1162.648438 859.429688 1162.949219 859.269531 "/>
<path fill-rule="evenodd" fill="rgb(98.4375%, 78.514099%, 37.255859%)" fill-opacity="1" d="M 1040.28125 951.910156 C 1046.359375 932.421875 1063.160156 918.828125 1079.429688 907.800781 C 1090.789062 900.101562 1102.789062 893.109375 1114.699219 886.308594 C 1130.410156 877.328125 1146.261719 868.601562 1162.050781 859.761719 C 1162.351562 859.589844 1162.648438 859.429688 1162.949219 859.269531 C 1260.410156 808.660156 1291.75 782.800781 1318.621094 716.378906 C 1187.78125 738.421875 1069.078125 652.46875 952.554688 737.980469 C 960.703125 756.980469 971.355469 778.339844 984.742188 803.640625 C 984.902344 803.949219 985.058594 804.25 985.207031 804.558594 C 993.164062 820.808594 1001.238281 837.011719 1009.050781 853.328125 C 1014.980469 865.699219 1020.859375 878.269531 1025.828125 891.070312 C 1032.941406 909.398438 1039.019531 930.121094 1032.941406 949.621094 C 950.703125 1213.054688 769.90625 1129.453125 744.050781 1212.375 C 738.339844 1230.6875 727.839844 1264.480469 725.257812 1272.96875 C 724.410156 1275.746094 725.988281 1278.734375 728.761719 1279.601562 L 1102.710938 1396.332031 C 1105.488281 1397.199219 1108.480469 1395.640625 1109.371094 1392.871094 C 1112.070312 1384.417969 1122.671875 1350.640625 1128.390625 1332.335938 C 1154.488281 1248.820312 958.839844 1212.800781 1040.28125 951.910156 "/>
<path fill-rule="evenodd" fill="rgb(100%, 59.959412%, 59.959412%)" fill-opacity="1" d="M 964.941406 462.058594 L 1373.558594 589.609375 C 1388.210938 594.179688 1396.429688 609.878906 1391.859375 624.519531 C 1387.289062 639.171875 1371.601562 647.390625 1356.949219 642.820312 L 948.332031 515.269531 C 933.6875 510.699219 925.460938 495 930.03125 480.359375 C 934.601562 465.710938 950.296875 457.480469 964.941406 462.058594 Z M 716.261719 1258.703125 L 1124.878906 1386.257812 C 1139.53125 1390.828125 1147.75 1406.523438 1143.179688 1421.167969 C 1138.609375 1435.8125 1122.921875 1444.039062 1108.269531 1439.46875 L 699.652344 1311.914062 C 685.007812 1307.34375 676.777344 1291.648438 681.351562 1277.003906 C 685.921875 1262.359375 701.617188 1254.128906 716.261719 1258.703125 "/>
<path fill-rule="evenodd" fill="rgb(90.234375%, 48.631287%, 48.631287%)" fill-opacity="1" d="M 962.074219 471.238281 L 1370.699219 598.789062 C 1380.28125 601.789062 1385.671875 612.070312 1382.679688 621.648438 C 1379.691406 631.238281 1369.398438 636.628906 1359.820312 633.640625 L 951.199219 506.078125 C 941.617188 503.089844 936.222656 492.808594 939.214844 483.21875 C 942.207031 473.640625 952.492188 468.25 962.074219 471.238281 "/>
<path fill-rule="evenodd" fill="rgb(90.234375%, 48.631287%, 48.631287%)" fill-opacity="1" d="M 713.394531 1267.886719 L 1122.011719 1395.441406 C 1131.601562 1398.433594 1136.988281 1408.71875 1134 1418.300781 C 1131.011719 1427.882812 1120.71875 1433.273438 1111.140625 1430.285156 L 702.519531 1302.730469 C 692.9375 1299.738281 687.542969 1289.453125 690.535156 1279.871094 C 693.527344 1270.289062 703.8125 1264.894531 713.394531 1267.886719 "/>
<path fill-rule="evenodd" fill="rgb(65.429688%, 64.646912%, 95.3125%)" fill-opacity="1" d="M 1274.96875 583.441406 C 1289.210938 587.878906 1299.929688 594.128906 1298.910156 597.390625 C 1297.890625 600.640625 1285.53125 599.679688 1271.289062 595.238281 C 1257.050781 590.789062 1246.328125 584.550781 1247.351562 581.289062 C 1248.359375 578.03125 1260.730469 578.988281 1274.96875 583.441406 "/>
<path fill-rule="evenodd" fill="rgb(65.429688%, 64.646912%, 95.3125%)" fill-opacity="1" d="M 1319.609375 597.128906 C 1322.988281 598.191406 1324.878906 601.78125 1323.820312 605.160156 C 1322.769531 608.539062 1319.171875 610.421875 1315.789062 609.371094 C 1312.410156 608.320312 1310.53125 604.71875 1311.589844 601.339844 C 1312.640625 597.960938 1316.230469 596.078125 1319.609375 597.128906 "/>
<path fill-rule="evenodd" fill="rgb(65.429688%, 64.646912%, 95.3125%)" fill-opacity="1" d="M 919.742188 1346.035156 C 933.980469 1350.480469 944.699219 1356.726562 943.683594 1359.984375 C 942.664062 1363.242188 930.296875 1362.28125 916.058594 1357.835938 C 901.820312 1353.390625 891.101562 1347.144531 892.117188 1343.886719 C 893.132812 1340.628906 905.503906 1341.589844 919.742188 1346.035156 "/>
<path fill-rule="evenodd" fill="rgb(65.429688%, 64.646912%, 95.3125%)" fill-opacity="1" d="M 964.382812 1359.730469 C 967.761719 1360.785156 969.648438 1364.382812 968.59375 1367.757812 C 967.535156 1371.136719 963.941406 1373.023438 960.5625 1371.96875 C 957.1875 1370.914062 955.300781 1367.320312 956.355469 1363.941406 C 957.410156 1360.5625 961.003906 1358.675781 964.382812 1359.730469 "/>
<path fill-rule="evenodd" fill="rgb(98.4375%, 87.5%, 43.920898%)" fill-opacity="1" d="M 1130.359375 1323.535156 C 1140.828125 1245.953125 961.753906 1203.460938 1040.28125 951.910156 C 1046.359375 932.421875 1063.160156 918.828125 1079.429688 907.800781 C 1090.789062 900.101562 1102.789062 893.109375 1114.699219 886.308594 C 1130.410156 877.328125 1146.261719 868.601562 1162.050781 859.761719 C 1162.351562 859.589844 1162.648438 859.429688 1162.949219 859.269531 C 1260.410156 808.660156 1291.75 782.800781 1318.621094 716.378906 C 1276.550781 723.46875 1235.730469 719.390625 1195.839844 713.441406 C 1127.308594 767.359375 1062.699219 867.171875 1024.261719 990.300781 C 977.0625 1141.511719 982.324219 1286.230469 1029.941406 1366.699219 L 1109.769531 1391.617188 C 1111.730469 1385.460938 1116.160156 1371.355469 1120.570312 1357.308594 C 1123.410156 1348.242188 1126.238281 1339.199219 1128.390625 1332.335938 C 1129.320312 1329.34375 1129.96875 1326.414062 1130.359375 1323.535156 "/>
<path fill-rule="evenodd" fill="rgb(100%, 100%, 100%)" fill-opacity="1" d="M 1037.820312 562.800781 C 1068.808594 572.46875 1090.070312 592.671875 1085.308594 607.921875 C 1080.550781 623.160156 1051.570312 627.679688 1020.578125 618.011719 C 989.59375 608.328125 968.328125 588.128906 973.089844 572.890625 C 977.847656 557.640625 1006.828125 553.128906 1037.820312 562.800781 "/>
<path fill-rule="evenodd" fill="rgb(100%, 100%, 100%)" fill-opacity="1" d="M 1080.570312 638.21875 C 1093.441406 642.238281 1102.269531 650.628906 1100.300781 656.960938 C 1098.320312 663.289062 1086.28125 665.171875 1073.410156 661.148438 C 1060.539062 657.128906 1051.710938 648.738281 1053.691406 642.410156 C 1055.660156 636.078125 1067.699219 634.210938 1080.570312 638.21875 "/>
<path fill-rule="evenodd" fill="rgb(80.076599%, 80.076599%, 80.076599%)" fill-opacity="1" d="M 952.628906 1479.316406 C 1142.960938 1479.316406 1297.25 1492.757812 1297.25 1509.34375 C 1297.25 1525.925781 1142.960938 1539.367188 952.628906 1539.367188 C 762.304688 1539.367188 608.011719 1525.925781 608.011719 1509.34375 C 608.011719 1492.757812 762.304688 1479.316406 952.628906 1479.316406 "/>
</svg>
